<?xml version="1.0" encoding="utf-8"?>
<!-- Generator: Adobe Illustrator 18.0.0, SVG Export Plug-In . SVG Version: 6.00 Build 0)  -->
<!DOCTYPE svg PUBLIC "-//W3C//DTD SVG 1.1//EN" "http://www.w3.org/Graphics/SVG/1.1/DTD/svg11.dtd">
<svg version="1.1" id="Layer_1" xmlns="http://www.w3.org/2000/svg" xmlns:xlink="http://www.w3.org/1999/xlink" x="0px" y="0px"
	 viewBox="0 0 180 180" enable-background="new 0 0 180 180" xml:space="preserve">
<g>
	<g>
		<g>
			<path fill="#909295" d="M80.4,15.5h-0.8l-1.8-6.2h0.9l1.3,5.1l1.5-5.1h1l1.5,5.1l1.3-5.1h0.8l-1.8,6.2h-0.8L82,10.3L80.4,15.5z"
				/>
		</g>
		<g>
			<path fill="#909295" d="M89.3,9.3c0,0.2,0,0.3-0.1,0.4c-0.1,0.1-0.2,0.2-0.4,0.2s-0.3-0.1-0.4-0.2c-0.1-0.1-0.1-0.3-0.1-0.4
				s0-0.3,0.1-0.4s0.2-0.2,0.4-0.2s0.3,0.1,0.4,0.2S89.3,9.1,89.3,9.3z M88.4,15.5v-4.6l0.8-0.1v4.7H88.4z"/>
		</g>
		<g>
			<path fill="#909295" d="M94.8,8.7l0.8-0.1v6.9h-0.8l0-0.4c-0.2,0.2-0.4,0.3-0.6,0.4c-0.2,0.1-0.4,0.2-0.7,0.2
				c-0.3,0-0.6-0.1-0.9-0.2c-0.3-0.1-0.5-0.3-0.6-0.5c-0.2-0.2-0.3-0.5-0.4-0.8c-0.1-0.3-0.1-0.6-0.1-1s0.1-0.7,0.2-1
				c0.1-0.3,0.3-0.6,0.5-0.8c0.2-0.2,0.5-0.4,0.7-0.5c0.3-0.1,0.6-0.2,0.9-0.2c0.2,0,0.3,0,0.5,0c0.2,0,0.3,0.1,0.5,0.1V8.7z
				 M93.8,11.5c-0.2,0-0.4,0-0.6,0.1c-0.2,0.1-0.3,0.2-0.5,0.4s-0.2,0.3-0.3,0.5c-0.1,0.2-0.1,0.4-0.1,0.7c0,0.5,0.1,0.9,0.4,1.2
				c0.2,0.3,0.6,0.5,1,0.5c0.2,0,0.4,0,0.6-0.1c0.2-0.1,0.4-0.2,0.5-0.3v-2.6C94.6,11.6,94.2,11.5,93.8,11.5z"/>
		</g>
		<g>
			<path fill="#909295" d="M100.7,15.4c-0.3,0.1-0.7,0.2-1,0.2c-0.4,0-0.8-0.1-1-0.3s-0.3-0.6-0.3-1.1l0.1-2.6l-0.8,0l0-0.5l0.8-0.2
				l0-1h0.8l0,1.1h1.4l0,0.7h-1.4l-0.1,2.6c0,0.4,0.2,0.7,0.6,0.7c0.1,0,0.3,0,0.4,0c0.1,0,0.3-0.1,0.4-0.1c0,0,0,0,0,0.1
				s0,0.2,0,0.2C100.7,15.2,100.7,15.3,100.7,15.4z"/>
		</g>
		<g>
			<path fill="#909295" d="M105.8,15.5v-2.9c0-0.4-0.1-0.7-0.2-0.8c-0.1-0.2-0.4-0.2-0.7-0.2c-0.3,0-0.5,0.1-0.7,0.2
				s-0.4,0.2-0.5,0.3v3.4h-0.8V8.7l0.8-0.1l0,2.8c0.2-0.2,0.5-0.4,0.7-0.5c0.3-0.1,0.5-0.2,0.8-0.2c0.4,0,0.8,0.1,1,0.4
				c0.3,0.3,0.4,0.7,0.4,1.2v3.1H105.8z"/>
		</g>
	</g>
	<g>
		<g>
			<path fill="#909295" d="M9.1,116.6H6.4v3.4h2.8v0.8H2.9v-0.8h2.7v-3.4H2.9v-0.8h6.2V116.6z"/>
		</g>
		<g>
			<path fill="#909295" d="M7,112.6c0.2,0,0.4,0,0.6-0.1s0.3-0.2,0.5-0.3c0.1-0.1,0.2-0.3,0.3-0.5c0.1-0.2,0.1-0.4,0.1-0.6
				c0-0.2,0-0.5-0.1-0.7c-0.1-0.2-0.2-0.5-0.3-0.6l0.8-0.1c0.1,0.2,0.2,0.4,0.3,0.7c0.1,0.3,0.1,0.5,0.1,0.8c0,0.3-0.1,0.7-0.2,0.9
				c-0.1,0.3-0.3,0.5-0.5,0.7c-0.2,0.2-0.5,0.4-0.8,0.5c-0.3,0.1-0.6,0.2-1,0.2c-0.4,0-0.7-0.1-1-0.2c-0.3-0.1-0.6-0.3-0.8-0.5
				c-0.2-0.2-0.4-0.4-0.5-0.7c-0.1-0.3-0.2-0.6-0.2-0.9c0-0.6,0.2-1,0.5-1.3c0.3-0.3,0.8-0.5,1.3-0.5c0.1,0,0.3,0,0.4,0
				s0.2,0,0.3,0.1v0.5c0,0.1,0,0.3,0,0.5s0,0.4,0,0.6C6.9,111.5,6.9,112,7,112.6L7,112.6z M6.3,110.2L6.3,110.2
				c-0.4,0-0.7,0.1-0.9,0.2c-0.2,0.2-0.3,0.4-0.3,0.8c0,0.2,0,0.4,0.1,0.5s0.2,0.3,0.3,0.4c0.1,0.1,0.2,0.2,0.4,0.3
				c0.1,0.1,0.3,0.1,0.4,0.1L6.3,110.2z"/>
		</g>
		<g>
			<path fill="#909295" d="M2.9,106.1c0.2,0,0.3,0,0.4,0.1c0.1,0.1,0.2,0.2,0.2,0.4s-0.1,0.3-0.2,0.4c-0.1,0.1-0.3,0.1-0.4,0.1
				s-0.3,0-0.4-0.1c-0.1-0.1-0.2-0.2-0.2-0.4s0.1-0.3,0.2-0.4C2.6,106.2,2.8,106.1,2.9,106.1z M9.1,107.1H4.5l-0.1-0.8h4.7V107.1z"
				/>
		</g>
		<g>
			<path fill="#909295" d="M9.2,103.3c-0.1,0.2-0.2,0.3-0.3,0.4s-0.3,0.2-0.4,0.2c-0.2,0-0.4-0.1-0.5-0.2c-0.2-0.1-0.3-0.3-0.4-0.6
				c-0.1,0.2-0.3,0.4-0.6,0.6s-0.5,0.2-0.8,0.2c-0.2,0-0.4,0-0.7-0.1c-0.2-0.1-0.4-0.2-0.5-0.4s-0.3-0.4-0.4-0.6s-0.1-0.5-0.1-0.8
				c0-0.2,0-0.5,0.1-0.7c0.1-0.2,0.1-0.4,0.2-0.5l-0.1-1.2l0.8,0l-0.2,0.9c0.1-0.1,0.2-0.2,0.4-0.2c0.2-0.1,0.4-0.1,0.5-0.1
				c0.2,0,0.4,0,0.7,0.1c0.2,0.1,0.4,0.2,0.5,0.4c0.1,0.2,0.3,0.4,0.4,0.6c0.1,0.2,0.1,0.5,0.1,0.7c0,0.1,0,0.2,0,0.3
				c0,0.1,0,0.2-0.1,0.3c0,0.1,0.1,0.2,0.2,0.3c0.1,0.1,0.2,0.2,0.3,0.2c0.1,0,0.1,0,0.2,0c0.1,0,0.1-0.1,0.1-0.2s0.1-0.2,0.1-0.3
				c0-0.1,0-0.3,0-0.5v-0.4c0-0.7,0.1-1.2,0.3-1.5c0.2-0.3,0.5-0.5,0.9-0.5c0.3,0,0.5,0.1,0.7,0.2s0.4,0.3,0.6,0.5
				c0.2,0.2,0.3,0.5,0.4,0.8c0.1,0.3,0.1,0.6,0.1,1c0,0.3,0,0.6-0.1,0.8c-0.1,0.3-0.2,0.5-0.3,0.7s-0.3,0.3-0.4,0.5
				s-0.3,0.2-0.6,0.2c-0.3,0-0.5-0.1-0.7-0.2C9.4,103.9,9.2,103.6,9.2,103.3z M6.1,103.1c0.3,0,0.6-0.1,0.7-0.3s0.3-0.5,0.3-0.8
				c0-0.3-0.1-0.5-0.3-0.7c-0.2-0.2-0.5-0.3-0.8-0.3c-0.3,0-0.5,0.1-0.7,0.3S5,101.7,5,102.1c0,0.3,0.1,0.5,0.3,0.7
				C5.5,103,5.8,103.1,6.1,103.1z M9.3,102.7c0.1,0.2,0.2,0.4,0.3,0.6c0.1,0.1,0.3,0.2,0.5,0.2c0.2,0,0.5-0.1,0.6-0.4
				c0.2-0.3,0.2-0.6,0.2-1.1c0-0.2,0-0.4-0.1-0.6c0-0.2-0.1-0.3-0.2-0.5c-0.1-0.1-0.2-0.2-0.3-0.3s-0.2-0.1-0.4-0.1
				c-0.3,0-0.4,0.1-0.5,0.3s-0.1,0.6-0.1,1c0,0.1,0,0.3,0,0.5C9.4,102.5,9.4,102.6,9.3,102.7z"/>
		</g>
		<g>
			<path fill="#909295" d="M9.1,94.7H6.2c-0.4,0-0.7,0.1-0.8,0.2c-0.2,0.1-0.2,0.4-0.2,0.7c0,0.3,0.1,0.5,0.2,0.7s0.2,0.4,0.3,0.5
				h3.4v0.8H2.4l-0.1-0.8l2.8,0c-0.2-0.2-0.4-0.5-0.5-0.7c-0.1-0.3-0.2-0.5-0.2-0.8c0-0.4,0.1-0.8,0.4-1C5.1,94,5.5,93.9,6,93.9h3.2
				V94.7z"/>
		</g>
		<g>
			<path fill="#909295" d="M9.1,88.9c0.1,0.3,0.2,0.7,0.2,1c0,0.4-0.1,0.8-0.3,1s-0.6,0.3-1.1,0.3l-2.6-0.1L5.2,92l-0.5,0l-0.2-0.8
				l-1,0v-0.8l1,0V89l0.7,0v1.4l2.6,0.1c0.4,0,0.6-0.2,0.6-0.6c0-0.1,0-0.3,0-0.4c0-0.1-0.1-0.3-0.1-0.4c0,0,0,0,0.1,0
				c0.1,0,0.2,0,0.2,0C8.8,89,8.9,88.9,9.1,88.9z"/>
		</g>
	</g>
	<g>
		<path fill="#010101" d="M33,38.9v132h115v-132H33z M144,166.9H37v-124h107V166.9z"/>
		<path fill="#010101" d="M137,49.9H44v110h93V49.9z M133,155.9H48v-102h85V155.9z"/>
	</g>
	<g>
		<rect x="82.2" y="26.8" fill="#B9BBBD" width="4" height="2"/>
		<rect x="64.2" y="26.8" fill="#B9BBBD" width="4" height="2"/>
		<rect x="70.2" y="26.8" fill="#B9BBBD" width="4" height="2"/>
		<rect x="76.2" y="26.8" fill="#B9BBBD" width="4" height="2"/>
		<rect x="88.2" y="26.8" fill="#B9BBBD" width="4" height="2"/>
		<rect x="46.2" y="26.8" fill="#B9BBBD" width="4" height="2"/>
		<rect x="40.2" y="26.8" fill="#B9BBBD" width="4" height="2"/>
		<rect x="58.2" y="26.8" fill="#B9BBBD" width="4" height="2"/>
		<rect x="52.2" y="26.8" fill="#B9BBBD" width="4" height="2"/>
		<rect x="118.2" y="26.8" fill="#B9BBBD" width="4" height="2"/>
		<rect x="124.2" y="26.8" fill="#B9BBBD" width="4" height="2"/>
		<rect x="136.2" y="26.8" fill="#B9BBBD" width="4" height="2"/>
		<rect x="130.2" y="26.8" fill="#B9BBBD" width="4" height="2"/>
		<rect x="94.2" y="26.8" fill="#B9BBBD" width="4" height="2"/>
		<rect x="100.2" y="26.8" fill="#B9BBBD" width="4" height="2"/>
		<rect x="106.2" y="26.8" fill="#B9BBBD" width="4" height="2"/>
		<rect x="112.2" y="26.8" fill="#B9BBBD" width="4" height="2"/>
		<polygon fill="#B9BBBD" points="34.7,24 32.7,24 32.7,31.6 34.7,31.6 34.7,28.8 38.2,28.8 38.2,26.8 34.7,26.8 		"/>
		<polygon fill="#B9BBBD" points="145.8,24 145.8,26.8 142.2,26.8 142.2,28.8 145.8,28.8 145.8,31.6 147.8,31.6 147.8,24 		"/>
	</g>
	<g>
		<rect x="21.5" y="75.8" fill="#B9BBBD" width="2" height="4"/>
		<rect x="21.5" y="69.8" fill="#B9BBBD" width="2" height="4"/>
		<rect x="21.5" y="93.8" fill="#B9BBBD" width="2" height="4"/>
		<rect x="21.5" y="87.8" fill="#B9BBBD" width="2" height="4"/>
		<rect x="21.5" y="99.8" fill="#B9BBBD" width="2" height="4"/>
		<rect x="21.5" y="81.8" fill="#B9BBBD" width="2" height="4"/>
		<rect x="21.5" y="63.8" fill="#B9BBBD" width="2" height="4"/>
		<polygon fill="#B9BBBD" points="23.5,165.8 21.5,165.8 21.5,169.4 18.7,169.4 18.7,171.4 26.3,171.4 26.3,169.4 23.5,169.4 		"/>
		<rect x="21.5" y="51.8" fill="#B9BBBD" width="2" height="4"/>
		<rect x="21.5" y="57.8" fill="#B9BBBD" width="2" height="4"/>
		<rect x="21.5" y="45.8" fill="#B9BBBD" width="2" height="4"/>
		<rect x="21.5" y="123.8" fill="#B9BBBD" width="2" height="4"/>
		<rect x="21.5" y="141.8" fill="#B9BBBD" width="2" height="4"/>
		<rect x="21.5" y="147.8" fill="#B9BBBD" width="2" height="4"/>
		<rect x="21.5" y="153.8" fill="#B9BBBD" width="2" height="4"/>
		<rect x="21.5" y="159.8" fill="#B9BBBD" width="2" height="4"/>
		<rect x="21.5" y="105.8" fill="#B9BBBD" width="2" height="4"/>
		<rect x="21.5" y="111.8" fill="#B9BBBD" width="2" height="4"/>
		<rect x="21.5" y="117.8" fill="#B9BBBD" width="2" height="4"/>
		<rect x="21.5" y="135.8" fill="#B9BBBD" width="2" height="4"/>
		<rect x="21.5" y="129.8" fill="#B9BBBD" width="2" height="4"/>
		<polygon fill="#B9BBBD" points="18.7,38.6 18.7,40.6 21.5,40.6 21.5,43.8 23.5,43.8 23.5,40.6 26.3,40.6 26.3,38.6 		"/>
	</g>
</g>
</svg>
